# xmcd CD database file
#
# Track frame offsets:
#	150
#	12700
#	26430
#	40137
#	53862
#	68862
#	80647
#	91827
#	104055
#	117762
#	131552
#	144250
#	157737
#
# Disc length: 2304 seconds
#
# Revision: 0
# Processed by: cddbd v1.5.2PL0 Copyright (c) Steve Scherf et al.
# Submitted via: CDex 1.70beta2
#
DISCID=a708fe0d
DTITLE=HAWKINS, COLEMAN - Crazy Rhythm
DYEAR=1900
DGENRE=Jazz
TTITLE0=Honeysuckle Rose
TTITLE1=Sweet Georgia Brown
TTITLE2=Crazy Rhythm
TTITLE3=Meditation
TTITLE4=Out of Nowhere
TTITLE5=A Stranger Fact
TTITLE6=Well Allright Then
TTITLE7=Lady Be Good
TTITLE8=Jamaica Shout
TTITLE9=Mighty Like The Blues
TTITLE10=My Buddy
TTITLE11=Avalon
TTITLE12=What a difference a day made
EXTD=
EXTT0=
EXTT1=
EXTT2=
EXTT3=
EXTT4=
EXTT5=
EXTT6=
EXTT7=
EXTT8=
EXTT9=
EXTT10=
EXTT11=
EXTT12=
PLAYORDER=
